<svg width="15" height="16" viewBox="0 0 15 16" fill="none" xmlns="http://www.w3.org/2000/svg">
<path fill-rule="evenodd" clip-rule="evenodd" d="M13.766 6.48374C14.7579 7.25124 14.7579 8.74864 13.766 9.51614C10.7685 11.8355 7.42134 13.6637 3.84979 14.9321L3.19732 15.1639C1.94904 15.6072 0.630532 14.7627 0.461542 13.4741C-0.0106181 9.87394 -0.0106181 6.12594 0.461542 2.52574C0.630532 1.23719 1.94905 0.392631 3.19732 0.835971L3.84979 1.06771C7.42134 2.33619 10.7685 4.16434 13.766 6.48374ZM12.8481 8.32984C13.0639 8.16284 13.0639 7.83704 12.8481 7.67004C9.97634 5.44796 6.76954 3.69648 3.34777 2.4812L2.6953 2.24947C2.37035 2.13406 1.99691 2.35401 1.94881 2.72079C1.49363 6.19154 1.49363 9.80834 1.94881 13.2791C1.99691 13.6458 2.37035 13.8658 2.69529 13.7504L3.34777 13.5187C6.76954 12.3034 9.97634 10.5519 12.8481 8.32984Z" fill="white"/>
</svg>
